<svg xmlns="http://www.w3.org/2000/svg" width="720" height="440" viewBox="0 0 720 440" font-family="Segoe UI, system-ui, sans-serif">
  <rect width="720" height="440" fill="#f1f5f9"/>
  <text x="24" y="40" font-size="22" font-weight="bold" fill="#0f172a">📊 Dashboard de Vendas</text>
  <text x="24" y="60" font-size="12" fill="#64748b">Gerado automaticamente pelo pipeline de dados · fonte: vendas.db</text>

  <!-- KPIs -->
  <g>
    <rect x="24" y="78" width="158" height="72" rx="12" fill="#fff"/>
    <rect x="24" y="78" width="4" height="72" rx="2" fill="#2563eb"/>
    <text x="40" y="104" font-size="11" fill="#64748b">Receita total</text>
    <text x="40" y="130" font-size="20" font-weight="bold" fill="#0f172a">R$ 1.4M</text>
  </g>
  <g>
    <rect x="194" y="78" width="158" height="72" rx="12" fill="#fff"/>
    <rect x="194" y="78" width="4" height="72" rx="2" fill="#2563eb"/>
    <text x="210" y="104" font-size="11" fill="#64748b">Total de vendas</text>
    <text x="210" y="130" font-size="20" font-weight="bold" fill="#0f172a">280</text>
  </g>
  <g>
    <rect x="364" y="78" width="158" height="72" rx="12" fill="#fff"/>
    <rect x="364" y="78" width="4" height="72" rx="2" fill="#2563eb"/>
    <text x="380" y="104" font-size="11" fill="#64748b">Itens vendidos</text>
    <text x="380" y="130" font-size="20" font-weight="bold" fill="#0f172a">1264</text>
  </g>
  <g>
    <rect x="534" y="78" width="162" height="72" rx="12" fill="#fff"/>
    <rect x="534" y="78" width="4" height="72" rx="2" fill="#2563eb"/>
    <text x="550" y="104" font-size="11" fill="#64748b">Ticket médio</text>
    <text x="550" y="130" font-size="20" font-weight="bold" fill="#0f172a">R$ 5k</text>
  </g>

  <!-- Painel: receita por mês -->
  <rect x="24" y="166" width="330" height="250" rx="12" fill="#fff"/>
  <text x="44" y="194" font-size="14" font-weight="bold" fill="#334155">Receita por mês</text>
  <g fill="#2563eb">
    <rect x="50" y="320" width="18" height="70" rx="3"/>
    <rect x="74" y="290" width="18" height="100" rx="3"/>
    <rect x="98" y="330" width="18" height="60" rx="3"/>
    <rect x="122" y="310" width="18" height="80" rx="3"/>
    <rect x="146" y="340" width="18" height="50" rx="3"/>
    <rect x="170" y="300" width="18" height="90" rx="3"/>
    <rect x="194" y="285" width="18" height="105" rx="3"/>
    <rect x="218" y="345" width="18" height="45" rx="3"/>
    <rect x="242" y="360" width="18" height="30" rx="3"/>
    <rect x="266" y="295" width="18" height="95" rx="3"/>
    <rect x="290" y="278" width="18" height="112" rx="3"/>
    <rect x="314" y="308" width="18" height="82" rx="3"/>
  </g>

  <!-- Painel: top produtos -->
  <rect x="366" y="166" width="330" height="250" rx="12" fill="#fff"/>
  <text x="386" y="194" font-size="14" font-weight="bold" fill="#334155">Top 5 produtos</text>
  <g font-size="11" fill="#334155">
    <text x="386" y="226">Smartphone</text>
    <rect x="470" y="215" width="180" height="15" rx="4" fill="#7c3aed"/>
    <text x="386" y="256">Notebook</text>
    <rect x="470" y="245" width="132" height="15" rx="4" fill="#7c3aed"/>
    <text x="386" y="286">Monitor</text>
    <rect x="470" y="275" width="96" height="15" rx="4" fill="#7c3aed"/>
    <text x="386" y="316">Cadeira Gamer</text>
    <rect x="470" y="305" width="70" height="15" rx="4" fill="#7c3aed"/>
    <text x="386" y="346">Mesa</text>
    <rect x="470" y="335" width="36" height="15" rx="4" fill="#7c3aed"/>
  </g>
</svg>
